<?xml version="1.0" encoding="UTF-8" standalone="no"?>
<svg width="20px" height="23px" viewBox="0 0 20 23" version="1.1" xmlns="http://www.w3.org/2000/svg" xmlns:xlink="http://www.w3.org/1999/xlink">
    <g stroke="none" stroke-width="1" fill="none" fill-rule="evenodd">
        <g fill-rule="nonzero" fill="#676767">
            <path d="M17.0723922,5.67372054 C18.6566275,5.67372054 19.9454902,4.40113131 19.9454902,2.83689899 C19.9454118,1.27258923 18.656549,0 17.0723922,0 C15.4881569,0 14.1992157,1.27258923 14.1992157,2.83689899 C14.1992157,4.40113131 15.4880784,5.67372054 17.0723922,5.67372054 Z"></path>
            <path d="M8.00666667,6.68920539 C8.46078431,6.99610438 8.86956863,7.36379461 9.22062745,7.78065993 L13.5342745,4.96877441 C13.252,4.51380808 13.0571765,4.00052862 12.973098,3.45178114 L8.00666667,6.68920539 Z"></path>
            <path d="M17.0723922,17.3262795 C15.4881569,17.3262795 14.1992157,18.5988687 14.1992157,20.1631785 C14.1992157,21.7274108 15.4880784,23 17.0723922,23 C18.6566275,23 19.9454902,21.7274108 19.9454902,20.1631785 C19.9454902,18.5989461 18.6566275,17.3262795 17.0723922,17.3262795 Z"></path>
            <path d="M8.0065098,16.3107946 L12.9730196,19.5482963 C13.0571765,18.9996263 13.252,18.4863468 13.5342745,18.0313805 L9.22054902,15.2194175 C8.8694902,15.6362828 8.46070588,16.0038956 8.0065098,16.3107946 Z"></path>
            <path d="M4.68243137,6.93058923 C2.13058824,6.93058923 0.0545098039,8.9803771 0.0545098039,11.5000774 C0.0545098039,14.0196229 2.1305098,16.0694882 4.68243137,16.0694882 C7.23419608,16.0694882 9.31027451,14.0197003 9.31027451,11.5000774 C9.31027451,8.9803771 7.23427451,6.93058923 4.68243137,6.93058923 Z"></path>
        </g>
    </g>
</svg>
