<?xml version="1.0" encoding="UTF-8" standalone="no"?>
<svg width="11px" height="23px" viewBox="0 0 11 23" version="1.1" xmlns="http://www.w3.org/2000/svg" xmlns:xlink="http://www.w3.org/1999/xlink">
    <g stroke="none" stroke-width="1" fill="none" fill-rule="evenodd">
        <g fill-rule="nonzero" fill="#676767">
            <path d="M8.80426724,13.4931195 L8.80426724,3.18371315 C8.80426724,1.4281992 7.32590517,0 5.50881897,0 C3.69201724,0 2.21393966,1.4281992 2.21393966,3.18371315 L2.21393966,13.4930279 C0.864163793,14.4866096 0.0692241379,16.0211952 0.0692241379,17.6692231 C0.0692241379,20.5676813 2.50932759,22.9256853 5.50881897,22.9256853 C8.5085,22.9256853 10.9487931,20.5676813 10.9487931,17.6692231 C10.9487931,16.0213785 10.1538534,14.4867928 8.80426724,13.4931195 Z M5.50881897,21.5511833 C3.29374138,21.5511833 1.49163793,19.8097809 1.49163793,17.6692231 C1.49163793,16.3594143 2.17325862,15.1459124 3.31498276,14.4231076 C3.5155431,14.2961036 3.63644828,14.0799402 3.63644828,13.8482908 L3.63644828,3.18371315 C3.63644828,2.1860996 4.47643103,1.37450199 5.50891379,1.37450199 C6.54177586,1.37450199 7.38194828,2.1860996 7.38194828,3.18371315 L7.38194828,13.8482908 C7.38194828,14.0800319 7.50275862,14.2961036 7.70341379,14.4231076 C8.84494828,15.146004 9.52656897,16.359506 9.52656897,17.6692231 C9.52637931,19.8097809 7.72408621,21.5511833 5.50881897,21.5511833 Z"></path>
            <path d="M6.22021552,15.4899044 L6.22021552,6.40737849 C6.22021552,6.02783267 5.90187931,5.72012749 5.50900862,5.72012749 C5.11613793,5.72012749 4.79780172,6.02783267 4.79780172,6.40737849 L4.79780172,15.4899044 C3.83966379,15.7815737 3.1449569,16.646502 3.1449569,17.6692231 C3.1449569,18.930741 4.20323276,19.9537371 5.50900862,19.9537371 C6.81506897,19.9537371 7.87325,18.930741 7.87325,17.6692231 C7.87315517,16.6464104 7.17844828,15.7813904 6.22021552,15.4899044 Z"></path>
        </g>
    </g>
</svg>
