<?xml version="1.0" encoding="UTF-8" standalone="no"?>
<svg width="16px" height="21px" viewBox="0 0 16 21" version="1.1" xmlns="http://www.w3.org/2000/svg" xmlns:xlink="http://www.w3.org/1999/xlink">
    <g stroke="none" stroke-width="1" fill="none" fill-rule="evenodd">
        <g fill-rule="nonzero" fill="#676767">
            <path d="M10.6613354,10.4533494 C10.6613354,10.3339848 10.6418449,10.2195938 10.6282015,10.1052028 L10.6282015,6.41087037 C11.0872041,6.3074211 11.4302379,5.89163463 11.4302379,5.39229298 C11.4302379,4.81436968 10.9722098,4.34785328 10.4079582,4.34785328 L7.54479514,4.34785328 C7.43369895,3.75600411 6.94838405,3.30042946 6.33540599,3.30042946 C5.72340246,3.30042946 5.23711303,3.75600411 5.12601685,4.34785328 L4.78395755,4.34785328 C4.21873135,4.34785328 3.76070323,4.81436968 3.76070323,5.39229298 C3.76070323,5.89163463 4.10568612,6.3074211 4.56371424,6.41087037 L4.56371424,10.1052028 C4.54909632,10.2185991 4.52863123,10.3329901 4.52863123,10.4533494 L0,18.0329975 C0,19.492229 1.15773917,20.6749326 2.58834615,20.6749326 L12.602595,20.6749326 C14.0322275,20.6749326 15.1909412,19.492229 15.1909412,18.0329975 L10.6613354,10.4533494 Z M4.40973883,16.5568561 C3.8152768,16.5568561 3.33288548,16.0644773 3.33288548,15.4587023 C3.33288548,14.8519326 3.8152768,14.3595539 4.40973883,14.3595539 C5.00322633,14.3595539 5.48561765,14.8519326 5.48561765,15.4587023 C5.4875667,16.0644773 5.00517538,16.5568561 4.40973883,16.5568561 Z M7.51458477,18.5532279 C6.98931422,18.5532279 6.56442005,18.1185421 6.56442005,17.5823964 C6.56442005,17.0472454 6.99028875,16.6125595 7.51458477,16.6125595 C8.03888079,16.6125595 8.46474949,17.0472454 8.46474949,17.5823964 C8.46572402,18.1185421 8.03985532,18.5532279 7.51458477,18.5532279 Z M8.10612322,14.3824321 C7.23002262,14.3824321 6.51959177,13.6572925 6.51959177,12.7640479 C6.51959177,11.8708033 7.23002262,11.144669 8.10612322,11.144669 C8.98124929,11.144669 9.69168014,11.8698085 9.69168014,12.7640479 C9.69168014,13.6582872 8.98124929,14.3824321 8.10612322,14.3824321 Z M9.2609388,1.57959071 C9.73163578,1.57959071 10.1136507,1.96951487 10.1136507,2.44995713 C10.1136507,2.93039939 9.73163578,3.32032355 9.2609388,3.32032355 C8.79024181,3.32032355 8.40822687,2.93039939 8.40822687,2.44995713 C8.40822687,1.96951487 8.79024181,1.57959071 9.2609388,1.57959071 Z M6.80220486,0 C7.21735376,0 7.55356589,0.343173045 7.55356589,0.766917153 C7.55356589,1.19066126 7.21735376,1.53383431 6.80220486,1.53383431 C6.38705597,1.53383431 6.05084384,1.19066126 6.05084384,0.766917153 C6.05084384,0.343173045 6.3880305,0 6.80220486,0 Z"></path>
        </g>
    </g>
</svg>
