<?xml version="1.0" encoding="UTF-8" standalone="no"?>
<svg width="24px" height="24px" viewBox="0 0 24 24" version="1.1" xmlns="http://www.w3.org/2000/svg" xmlns:xlink="http://www.w3.org/1999/xlink">
    <g stroke="none" stroke-width="1" fill="none" fill-rule="evenodd">
        <g fill-rule="nonzero" fill="#676767">
            <path d="M12,0 C5.38317474,0 0,5.38317474 0,12 C0,18.6168253 5.38317474,24 12,24 C18.6168253,24 24,18.6168253 24,12 C24,5.38317474 18.6168253,0 12,0 Z M12,23.2421053 C5.80107789,23.2421053 0.757894737,18.1989221 0.757894737,12 C0.757894737,5.80107789 5.80107789,0.757894737 12,0.757894737 C18.1989221,0.757894737 23.2421053,5.80107789 23.2421053,12 C23.2421053,18.1989221 18.1989221,23.2421053 12,23.2421053 Z"></path>
            <path d="M6.88673684,13.9080253 C7.60158316,13.9080253 8.18314105,13.3264674 8.18314105,12.6116716 L8.18314105,7.10693053 C8.18314105,6.39208421 7.60158316,5.81052632 6.88673684,5.81052632 C6.17189053,5.81052632 5.59033263,6.39213474 5.59033263,7.10693053 L5.59033263,12.6116211 C5.59033263,13.3264674 6.17189053,13.9080253 6.88673684,13.9080253 Z M6.34822737,7.10693053 C6.34822737,6.80998737 6.58984421,6.56842105 6.88673684,6.56842105 C7.18368,6.56842105 7.42524632,6.80998737 7.42524632,7.10693053 L7.42524632,12.6116716 C7.42524632,12.9086147 7.18368,13.1501811 6.88673684,13.1501811 C6.58979368,13.1501811 6.34822737,12.9085642 6.34822737,12.6116716 L6.34822737,7.10693053 L6.34822737,7.10693053 Z"></path>
            <path d="M14.7261979,7.79322947 L14.7318568,7.79322947 C15.0780632,7.79322947 15.4040589,7.65781895 15.6503242,7.41160421 L17.8073937,5.25458526 C18.0538105,5.01498947 18.1895242,4.68899368 18.1895242,4.33626947 C18.1895242,3.98394947 18.0541642,3.65830737 17.8083032,3.41881263 C17.5652716,3.17340632 17.2404884,3.03829895 16.89312,3.03829895 C16.5441853,3.03829895 16.2179368,3.17461895 15.9768253,3.41992421 L13.8200589,5.57674105 C13.57248,5.82012632 13.4361095,6.14637474 13.4361095,6.49530947 C13.4361095,6.84318316 13.5715705,7.16847158 13.8177347,7.41160421 C14.0594021,7.65625263 14.3819116,7.79176421 14.7261979,7.79322947 Z M14.3536674,6.11489684 L16.5149811,3.95353263 C16.61472,3.85207579 16.7490189,3.79619368 16.8930695,3.79619368 C17.03712,3.79619368 17.1714189,3.85207579 17.2712084,3.95353263 L17.2780295,3.96030316 C17.4049516,4.08303158 17.4315789,4.23243789 17.4315789,4.33621895 C17.4315789,4.42115368 17.4116211,4.58288842 17.2780295,4.71208421 L15.1143916,6.87562105 C15.0113684,6.97864421 14.8755537,7.03528421 14.7317558,7.03528421 L14.7294316,7.03528421 C14.5877053,7.03467789 14.4550737,6.97879579 14.3559411,6.87794526 L14.3513432,6.87334737 C14.2498863,6.77360842 14.1940042,6.63930947 14.1940042,6.49525895 C14.1940042,6.35120842 14.2498863,6.21696 14.3536674,6.11489684 Z"></path>
            <path d="M11.6747116,7.86048 C11.4370358,7.62280421 11.1030568,7.48648421 10.7584168,7.48648421 C10.4087242,7.48648421 10.0833853,7.61926737 9.84444632,7.85815579 C9.59686737,8.10154105 9.46049684,8.42778947 9.46049684,8.77672421 C9.46049684,9.12565895 9.59681684,9.45185684 9.84171789,9.69261474 L12.0011621,11.8581726 C12.2442947,12.1013053 12.5697347,12.2352 12.9174568,12.2352 C13.2646737,12.2352 13.5896589,12.1017095 13.8326905,11.8592842 C14.0795116,11.6160505 14.2153768,11.2903074 14.2153768,10.9419789 C14.2153768,10.5929937 14.0790568,10.2667958 13.8341558,10.0260379 L11.6747116,7.86048 Z M13.3000926,11.3200168 L13.2978189,11.3222905 C13.0915705,11.5284379 12.7431916,11.5284379 12.5374484,11.3226442 L10.37568,9.15476211 C10.2742232,9.05502316 10.2183411,8.92072421 10.2183411,8.77667368 C10.2183411,8.63262316 10.2742232,8.49832421 10.3779537,8.39631158 C10.5036126,8.27065263 10.6541811,8.24427789 10.7583663,8.24427789 C10.9035284,8.24427789 11.0421221,8.29970526 11.1383747,8.39595789 L13.3000926,10.5637895 C13.4015495,10.6635789 13.4574316,10.7978274 13.4574316,10.9419284 C13.4574316,11.0859789 13.4015495,11.2202274 13.3000926,11.3200168 Z"></path>
            <path d="M9.24853895,15.0613895 C9.00899368,14.8149221 8.68294737,14.6792589 8.33022316,14.6792589 C7.97795368,14.6792589 7.65236211,14.8145684 7.41286737,15.0603789 C7.16741053,15.3034105 7.03230316,15.6282442 7.03230316,15.9756126 C7.03230316,16.3245474 7.16867368,16.6507958 7.41392842,16.8919074 L11.3016253,20.7796042 C11.5450105,21.0271832 11.8712589,21.1635537 12.2201937,21.1635537 C12.5681179,21.1635537 12.8934063,21.0280421 13.1365389,20.7819284 C13.3826021,20.5387958 13.5181137,20.2135074 13.5181137,19.8656842 C13.5181137,19.5167495 13.3817432,19.1905011 13.1364884,18.9493895 L9.24853895,15.0613895 Z M12.60288,20.2437221 L12.5982821,20.24832 C12.4985432,20.3497768 12.3642442,20.4056589 12.2201937,20.4056589 C12.0761432,20.4056589 11.9418947,20.3497768 11.8398316,20.2459958 L7.94753684,16.3537011 C7.84608,16.2539621 7.79019789,16.1196632 7.79019789,15.9756126 C7.79019789,15.8315621 7.84608,15.6972632 7.94753684,15.5975242 L7.95430737,15.5906526 C8.08345263,15.4570611 8.24523789,15.4371032 8.33017263,15.4371032 C8.41510737,15.4371032 8.57689263,15.4570611 8.70608842,15.5907032 L12.60288,19.4875453 C12.7043368,19.5872842 12.7602189,19.7215832 12.7602189,19.8656337 C12.7602189,20.0096842 12.7043368,20.1439832 12.60288,20.2437221 Z"></path>
            <path d="M20.4760926,12.0867537 C20.23296,11.84064 19.9076716,11.7051284 19.5597979,11.7051284 C19.2108632,11.7051284 18.8846147,11.8414989 18.6435032,12.0867537 L14.7556042,15.9746526 C14.5091368,16.2142484 14.3734232,16.5402442 14.3734232,16.8930695 C14.3734232,17.2453389 14.5087326,17.5709811 14.7545937,17.8104758 C14.9976253,18.0559326 15.3224084,18.1909895 15.6697768,18.1909895 C16.0187621,18.1909895 16.34496,18.0546695 16.5860716,17.8093137 L20.4737684,13.9216168 C20.7213474,13.6782316 20.8577179,13.3519832 20.8577179,13.0030484 C20.8577179,12.6551747 20.7222568,12.3298863 20.4760926,12.0867537 Z M19.9401095,13.3834611 L16.0478653,17.2757558 C15.9480758,17.3772126 15.8138274,17.4330947 15.6697263,17.4330947 C15.5256758,17.4330947 15.3914274,17.3772126 15.2916379,17.2757558 L15.2848168,17.2689853 C15.1512253,17.13984 15.1312674,16.9780547 15.1312674,16.89312 C15.1312674,16.8081853 15.1512253,16.6464 15.2848168,16.5172547 L19.1817095,12.6204126 C19.2814484,12.5189558 19.4157474,12.4630737 19.5597979,12.4630737 C19.7038484,12.4630737 19.8381474,12.5189558 19.9378358,12.6204126 L19.9424337,12.6250105 C20.0438905,12.7247495 20.0997726,12.8590484 20.0997726,13.0030989 C20.0997726,13.1471495 20.0438905,13.2813979 19.9401095,13.3834611 Z"></path>
            <rect x="18.1163621" y="9.48035368" width="1.83486316" height="1"></rect>
            <rect x="9.55346526" y="3.05815579" width="1.83486316" height="1"></rect>
            <rect x="2.21386105" y="11.0094316" width="1.83491368" height="1"></rect>
            <rect x="11.3883789" y="13.1501305" width="1.83491368" height="1"></rect>
            <rect x="5.27201684" y="18.0432" width="1.83486316" height="1"></rect>
            <rect x="15.9756126" y="19.2664926" width="1.83491368" height="1"></rect>
        </g>
    </g>
</svg>
