<?xml version="1.0" encoding="UTF-8" standalone="no"?>
<svg width="15px" height="15px" viewBox="0 0 15 15" version="1.1" xmlns="http://www.w3.org/2000/svg" xmlns:xlink="http://www.w3.org/1999/xlink">
    <g stroke="none" stroke-width="1" fill="none" fill-rule="evenodd">
        <g transform="translate(0.000000, -3.000000)" fill-rule="nonzero" fill="#4CBCC5">
            <path d="M13.5,3 L1.5,3 C0.675,3 0,3.675 0,4.5 L0,18 L3,15 L13.5,15 C14.325,15 15,14.325 15,13.5 L15,4.5 C15,3.675 14.325,3 13.5,3 Z M3,8.25 L12,8.25 L12,9.75 L3,9.75 L3,8.25 Z M9,12 L3,12 L3,10.5 L9,10.5 L9,12 Z M12,7.5 L3,7.5 L3,6 L12,6 L12,7.5 Z"></path>
        </g>
    </g>
</svg>
