<?xml version="1.0" encoding="UTF-8"?>
<svg width="25px" height="39px" viewBox="0 0 25 39" version="1.1" xmlns="http://www.w3.org/2000/svg">
    <g stroke="none" stroke-width="1" fill="none" fill-rule="nonzero" transform="translate(0, -112.000000)">
        <path d="M21.2994773,116.481645 L21.2994773,114.067002 L24.5067644,114.067002 L24.5067644,112 L15.8738854,112 L15.8738854,114.067002 L19.0800963,114.067002 L19.0800963,116.481645 L16.2788767,116.481645 C13.367531,116.481645 11,119.019731 11,122.138885 L11,125 L15.0721533,125 L15.0721533,122.140038 C15.0721533,121.425144 15.6138157,120.844845 16.278518,120.844845 L25,120.844845 L25,116.481645 L21.2994773,116.481645 Z" fill="#333333"></path>
        <rect fill="#333333" x="13" y="127" width="1" height="5"></rect>
        <rect fill="#333333" x="11" y="127" width="1" height="5"></rect>
        <rect fill="#333333" x="7" y="143" width="1" height="8"></rect>
        <rect fill="#333333" x="9.75" y="143" width="1" height="8"></rect>
        <rect fill="#333333" x="12.5" y="143" width="1" height="8"></rect>
        <rect fill="#333333" x="15.25" y="143" width="1" height="8"></rect>
        <rect fill="#333333" x="18" y="143" width="1" height="8"></rect>
        <g fill="#000000">
            <g transform="translate(0.000000, 134.000000)">
                <ellipse cx="1.38198529" cy="1.4208" rx="1.16029412" ry="1.16529231"></ellipse>
                <ellipse cx="4.58860294" cy="1.4208" rx="1.16029412" ry="1.16529231"></ellipse>
                <ellipse cx="7.79522059" cy="1.4208" rx="1.16029412" ry="1.16529231"></ellipse>
                <ellipse cx="11.0022059" cy="1.4208" rx="1.16029412" ry="1.16529231"></ellipse>
                <ellipse cx="14.2088235" cy="1.4208" rx="1.16029412" ry="1.16529231"></ellipse>
                <ellipse cx="17.4154412" cy="1.4208" rx="1.15992647" ry="1.16492308"></ellipse>
                <ellipse cx="20.6220588" cy="1.4208" rx="1.16029412" ry="1.16529231"></ellipse>
                <ellipse cx="23.8290441" cy="1.4208" rx="1.16029412" ry="1.16529231"></ellipse>
                <ellipse cx="1.38198529" cy="5.63236923" rx="1.16029412" ry="1.16529231"></ellipse>
                <ellipse cx="4.58860294" cy="5.63236923" rx="1.16029412" ry="1.16529231"></ellipse>
                <ellipse cx="7.79522059" cy="5.63236923" rx="1.16029412" ry="1.16529231"></ellipse>
                <ellipse cx="11.0022059" cy="5.63236923" rx="1.16029412" ry="1.16529231"></ellipse>
                <ellipse cx="14.2088235" cy="5.63236923" rx="1.16029412" ry="1.16529231"></ellipse>
                <ellipse cx="17.4154412" cy="5.63236923" rx="1.15992647" ry="1.16492308"></ellipse>
                <ellipse cx="20.6220588" cy="5.63236923" rx="1.16029412" ry="1.16529231"></ellipse>
                <ellipse cx="23.8290441" cy="5.63236923" rx="1.16029412" ry="1.16529231"></ellipse>
            </g>
        </g>
    </g>
</svg>
