<?xml version="1.0" encoding="UTF-8" standalone="no"?>
<svg width="36px" height="35px" viewBox="0 0 36 35" version="1.1" xmlns="http://www.w3.org/2000/svg">
    <g stroke="none" stroke-width="1" fill="none" fill-rule="evenodd">
        <g transform="translate(-52.000000, -25.000000)">
            <g transform="translate(52.000000, 3.000000)">
                <circle fill="#FFFFFF" cx="17.625" cy="39.375" r="17.625"></circle>
                <path d="M36,6.43082886 L36,8.58488422 L27.7059457,8.58488422 L27.7059457,6.43082886 L36,6.43082886 Z M32.5218858,11.1253758 L27.7059457,11.1253758 L27.7059457,13.2794312 L32.5218858,13.2794312 L32.5218858,11.1253758 Z M27.7059457,17.9739781 L36,17.9739781 L36,15.8200904 L27.7059457,15.8200904 L27.7059457,17.9739781 Z M32.5218858,20.5158104 L27.7059457,20.5158104 L27.7059457,22.6698657 L32.5218858,22.6698657 L32.5218858,20.5158104 Z M27.7059457,27.3644127 L36,27.3644127 L36,25.2103573 L27.7059457,25.2103573 L27.7059457,27.3644127 Z M28.9988111,39.6378695 C28.9988111,45.6507574 24.1379104,50.5425443 18.1629875,50.5425443 C12.1880645,50.5425443 7.32716387,45.6507574 7.32716387,39.6378695 C7.32716387,35.7413319 9.360546,32.2000608 12.6781344,30.241067 L12.6781344,5.519704 C12.6783009,2.47597385 15.1386417,0 18.1629875,0 C21.1873332,0 23.6478405,2.47597385 23.6478405,5.519704 L23.6478405,30.2412346 C26.9654289,32.1980499 28.9988111,35.7403264 28.9988111,39.6378695 Z M26.8583562,39.6378695 C26.8583562,36.3315437 25.0326252,33.3427793 22.0927053,31.8404372 L21.5073857,31.5409742 L21.5073857,5.52070947 C21.5073857,3.66393856 20.0070358,2.15506083 18.1629875,2.15506083 C16.3191057,2.15506083 14.8185892,3.66393856 14.8185892,5.52070947 L14.8185892,31.5409742 L14.2332696,31.8404372 C11.2933497,33.3439524 9.46761869,36.3325492 9.46761869,39.6378695 C9.46761869,44.4627926 13.3685285,48.388489 18.1629875,48.388489 C22.9574464,48.388489 26.8583562,44.4627926 26.8583562,39.6378695 Z M25.075421,39.6378695 C25.075421,43.4730734 21.9749753,46.5932194 18.1629875,46.5932194 C14.3519987,46.5932194 11.2515531,43.4730734 11.2515531,39.6378695 C11.2515531,36.494095 13.3620342,33.7337402 16.3842152,32.9250059 L16.7812001,32.8184259 L16.7812001,19.5336322 L19.5456074,19.5336322 L19.5456074,32.8174204 L19.9425923,32.9251735 C22.9661055,33.7337402 25.075421,36.495268 25.075421,39.6378695 Z M18.5055202,35.0014723 C18.3406649,34.2647968 17.6044776,33.7801595 16.8541361,33.9524303 C14.2342687,34.5490101 12.4042082,36.8548917 12.4042082,39.5604482 C12.4042082,40.3261149 13.023831,40.9498424 13.7848298,40.9498424 C14.5458286,40.9498424 15.1654515,40.3262824 15.1654515,39.5604482 C15.1654515,38.1851306 16.130771,36.9659963 17.4631017,36.6633493 C18.2036185,36.4919164 18.6723737,35.7466944 18.5055202,35.0014723 Z" fill="#4CBCC5" fill-rule="nonzero"></path>
            </g>
        </g>
    </g>
</svg>
