<?xml version="1.0" encoding="UTF-8" standalone="no"?>
<svg width="13px" height="16px" viewBox="0 0 13 16" version="1.1" xmlns="http://www.w3.org/2000/svg" xmlns:xlink="http://www.w3.org/1999/xlink">
    <g stroke="none" stroke-width="1" fill="none" fill-rule="evenodd">
        <g fill-rule="nonzero" fill="#676767">
            <path d="M6.47619048,0.0547008547 C2.92473118,0.0547008547 0.0278545827,2.8991453 0.0278545827,6.4 C0.0278545827,6.82393162 0.0696364567,7.24786325 0.153200205,7.65811966 C0.153200205,7.68547009 0.167127496,7.71282051 0.167127496,7.75384615 C0.877419355,10.8854701 5.87731695,15.5897436 6.08622632,15.7811966 C6.19764465,15.8905983 6.33691756,15.9316239 6.47619048,15.9316239 C6.61546339,15.9316239 6.7547363,15.8769231 6.86615463,15.7811966 C7.075064,15.5760684 12.047107,10.8854701 12.7573989,7.82222222 C12.7573989,7.79487179 12.7713262,7.76752137 12.7713262,7.74017094 C12.8688172,7.3025641 12.9105991,6.85128205 12.9105991,6.4 C12.9245264,2.8991453 10.0276498,0.0547008547 6.47619048,0.0547008547 L6.47619048,0.0547008547 Z M11.6571429,7.53504274 L11.6571429,7.57606838 C11.1279058,9.84615385 7.66001024,13.4290598 6.47619048,14.591453 C5.29237071,13.4290598 1.81054788,9.84615385 1.2813108,7.52136752 C1.2813108,7.49401709 1.2813108,7.48034188 1.26738351,7.45299145 C1.19774706,7.0974359 1.15596518,6.74188034 1.15596518,6.38632479 C1.15596518,3.51452991 3.537532,1.16239316 6.46226318,1.16239316 C9.38699437,1.16239316 11.7824885,3.5008547 11.7824885,6.38632479 C11.7824885,6.78290598 11.7407066,7.16581197 11.6571429,7.53504274 L11.6571429,7.53504274 Z"></path>
            <path d="M6.47619048,3.62393162 C5.27844342,3.62393162 4.31746032,4.58119658 4.31746032,5.74358974 C4.31746032,6.90598291 5.29237071,7.86324786 6.47619048,7.86324786 C7.66001024,7.86324786 8.63492063,6.91965812 8.63492063,5.74358974 C8.63492063,4.56752137 7.67393753,3.62393162 6.47619048,3.62393162 Z M6.47619048,6.75555556 C5.90517153,6.75555556 5.44557092,6.3042735 5.44557092,5.74358974 C5.44557092,5.18290598 5.90517153,4.73162393 6.47619048,4.73162393 C7.04720942,4.73162393 7.50681004,5.18290598 7.50681004,5.74358974 C7.50681004,6.3042735 7.04720942,6.75555556 6.47619048,6.75555556 Z"></path>
        </g>
    </g>
</svg>
