<?xml version="1.0" encoding="UTF-8" standalone="no"?>
<svg width="20px" height="15px" viewBox="0 0 20 15" version="1.1" xmlns="http://www.w3.org/2000/svg" xmlns:xlink="http://www.w3.org/1999/xlink">
    <!-- Generator: Sketch 45 (43475) - http://www.bohemiancoding.com/sketch -->
    <title>logout</title>
    <desc>Created with Sketch.</desc>
    <defs></defs>
    <g id="Symbols" stroke="none" stroke-width="1" fill="none" fill-rule="evenodd">
        <g id="testata" transform="translate(-1367.000000, -35.000000)" fill-rule="nonzero" fill="#FFFFFF">
            <g id="logout">
                <g transform="translate(1367.000000, 35.000000)">
                    <g id="Group">
                        <path d="M0,2.52874332 L0,12.4832888 C0,13.8549465 1.13645621,14.9739305 2.52953157,14.9739305 L10.700611,14.9739305 C12.0936864,14.9739305 13.2301426,13.8549465 13.2301426,12.4832888 L13.2301426,10.8709893 C13.2301426,10.598262 13.00611,10.3776738 12.7291242,10.3776738 C12.4521385,10.3776738 12.2281059,10.598262 12.2281059,10.8709893 L12.2281059,12.4832888 C12.2281059,13.3135027 11.5397149,13.9913102 10.6965377,13.9913102 L2.52953157,13.9913102 C1.68635438,13.9913102 0.99796334,13.3135027 0.99796334,12.4832888 L0.99796334,2.52874332 C0.99796334,1.69852941 1.68635438,1.02072193 2.52953157,1.02072193 L10.700611,1.02072193 C11.5437882,1.02072193 12.2321792,1.69852941 12.2321792,2.52874332 L12.2321792,4.14104278 C12.2321792,4.41377005 12.4562118,4.63435829 12.7331976,4.63435829 C13.0101833,4.63435829 13.2342159,4.41377005 13.2342159,4.14104278 L13.2342159,2.52874332 C13.2342159,1.15708556 12.0977597,0.0381016043 10.7046843,0.0381016043 L2.52953157,0.0381016043 C1.13645621,0.0381016043 0,1.15307487 0,2.52874332 Z" id="Shape"></path>
                        <path d="M15.6985743,11.2159091 C15.796334,11.3121658 15.9226069,11.3602941 16.0529532,11.3602941 C16.1832994,11.3602941 16.3095723,11.3121658 16.407332,11.2159091 L19.8248473,7.85093583 C20.0203666,7.65842246 20.0203666,7.34959893 19.8248473,7.15708556 L16.407332,3.7921123 C16.2118126,3.59959893 15.898167,3.59959893 15.7026477,3.7921123 C15.5071283,3.98462567 15.5071283,4.2934492 15.7026477,4.48596257 L18.2688391,7.01270053 L8.90427699,7.01270053 C8.62729124,7.01270053 8.40325866,7.23328877 8.40325866,7.50601604 C8.40325866,7.77874332 8.62729124,7.99933155 8.90427699,7.99933155 L18.2647658,7.99933155 L15.6985743,10.5260695 C15.503055,10.7145722 15.503055,11.0274064 15.6985743,11.2159091 Z" id="Shape"></path>
                    </g>
                </g>
            </g>
        </g>
    </g>
</svg>